<?xml version="1.0" encoding="UTF-8"?>
<!-- Created with Inkscape (http://www.inkscape.org/) -->
<svg id="svg2816" width="219.69" height="34.076" version="1.1" xml:space="preserve" xmlns="http://www.w3.org/2000/svg" xmlns:cc="http://creativecommons.org/ns#" xmlns:dc="http://purl.org/dc/elements/1.1/" xmlns:rdf="http://www.w3.org/1999/02/22-rdf-syntax-ns#" xmlns:xlink="http://www.w3.org/1999/xlink"><metadata id="metadata2822"><rdf:RDF><cc:Work rdf:about=""><dc:format>image/svg+xml</dc:format><dc:type rdf:resource="http://purl.org/dc/dcmitype/StillImage"/><dc:title/></cc:Work></rdf:RDF></metadata><defs id="defs2820"><linearGradient id="linearGradient2876" x1="212.23" x2="380.43" y1="409.78" y2="409.43" gradientUnits="userSpaceOnUse"><stop id="stop2872" stop-color="#fe0" offset="0"/><stop id="stop2874" stop-color="#f30" offset="1"/></linearGradient></defs><g id="g2826" transform="matrix(1.25 0 0 -1.25 -262.2 543.22)" fill-rule="evenodd"><path id="path2832" d="m209.76 407.31v4.224h170.67l-2.016-4.224h-168.65" fill="url(#linearGradient2876)"/><path id="path2834" d="m300.47 434.58-2.256-4.992h-6.1908l-3.744-8.3508h6.144l-2.304-4.9908h-6.144c-3.1668 0-3.9348 1.728-2.4948 4.9908l3.9348 8.64c1.44 3.2628 2.496 4.7028 7.008 4.7028h6.0468"/><path id="path2836" d="m310.45 416.24 6.2388 13.631c1.44 3.2628 2.496 4.7028 7.0068 4.7028h10.751c3.072 0 3.552-2.592 2.592-4.7028-0.96-2.112-6.24-13.631-6.24-13.631h-4.7988l6.1428 13.342h-2.9268l-6.096-13.342h-4.7988l6.0948 13.342h-3.168l-5.9988-13.342h-4.7988"/><path id="path2838" d="m333.11 416.24 6.24 13.631c0.7668 1.7748 2.2068 4.7028 6.9108 4.7028h4.7028c2.928 0 3.9348-1.824 2.64-4.7028l-1.872-4.224c-1.152-2.496-1.584-3.7428-6.5268-3.7428h-2.544l1.68 3.7428h2.592l1.8228 3.9348h-4.7508l-6.0948-13.342h-4.8"/><path id="path2840" d="m346.83 416.24h5.4228l8.8788 13.294-0.528-6.1908h-1.536l-2.448-3.7428h3.648l-0.24-3.36h4.224l1.5348 18.334h-5.8068l-13.15-18.334"/><path id="path2842" d="m302.44 421.23h-1.2948l3.7908 8.3508h4.512l-3.792-8.3508h-3.216zm0-4.9908h0.9132c2.8788 0 5.0868 0.576 7.0068 4.8948l4.0308 8.736c0.864 1.9188 1.248 4.7028-2.5908 4.7028h-4.512c-4.5108 0-5.568-1.44-7.0068-4.7028l-3.9348-8.64c-1.44-3.2628-0.6732-4.9908 2.4948-4.9908h3.5988"/><path id="path2844" d="m374.57 421.23h-2.688l3.7908 8.3508h4.512l-3.792-8.3508h-1.8228zm0-4.9908h7.8708l2.3988 4.9908h-3.7428l3.8388 8.64c0.864 1.9188 1.248 4.7028-2.592 4.7028h-4.5108c-4.5108 0-5.5668-1.44-7.0068-4.7028l-3.936-8.64c-1.4388-3.2628-0.672-4.9908 2.496-4.9908h5.184"/></g></svg>
