<?xml version="1.0" encoding="UTF-8"?>
<svg id="svg2" width="752.01" height="117.4" version="1.0" viewBox="0 0 774.37 121.48" xmlns="http://www.w3.org/2000/svg" xmlns:cc="http://creativecommons.org/ns#" xmlns:dc="http://purl.org/dc/elements/1.1/" xmlns:rdf="http://www.w3.org/1999/02/22-rdf-syntax-ns#">
 <metadata id="metadata20">
  <rdf:RDF>
   <cc:Work rdf:about="">
    <dc:format>image/svg+xml</dc:format>
    <dc:type rdf:resource="http://purl.org/dc/dcmitype/StillImage"/>
    <dc:title/>
   </cc:Work>
  </rdf:RDF>
 </metadata>
 <g id="g897" transform="translate(-8.7856 -6.8651)">
  <path id="path1946" d="m84.04 125.52c-5.9471 2.0744-11.533 2.8227-18.161 2.8227-8.148 0-15.911-1.6994-22.971-4.7733-7.0601-3.0739-13.418-7.521-18.758-13.017-5.3395-5.4953-9.661-12.04-12.647-19.306-2.9863-7.2668-4.6378-15.256-4.6378-23.643 0-8.3867 1.6515-16.376 4.6378-23.643 2.9859-7.2664 7.3074-13.811 12.647-19.307 5.3395-5.4962 11.698-9.9437 18.758-13.017 7.0601-3.0739 14.823-4.7733 22.971-4.7733 6.2384 0 9.6036 0.27533 15.248 2.1219 0.62056 0.21534 1.4819 0.51829 2.8663 0.97745l-0.025 3.7337 0.063 26.12v0.24296c-0.23346-0.15276-0.96838-0.62962-1.034-0.6676-4.8156-2.7973-9.5134-3.9379-15.5-3.9379-8.9675 0-17.086 3.5987-22.963 9.4168-5.8764 5.8181-9.5113 13.856-9.5113 22.734 0 8.8778 3.6349 16.916 9.5113 22.733 5.8768 5.8181 13.995 9.4163 22.963 9.4163 6.2484 0 11.553-1.7538 16.507-4.7824v0.95242l0.0358 28.842z" fill="#04a"/>
  <polygon id="polygon1948" transform="matrix(.43155 0 0 .43155 6.8651 6.8651)" points="245.46 134.85 179.96 134.85 179.96 78.103 298.46 78.103" fill="#04a"/>
  <polygon id="polygon1950" transform="matrix(.43155 0 0 .43155 6.8651 6.8651)" points="245.46 146.35 179.96 146.35 179.96 203.1 298.46 203.1" fill="#e61e25"/>
  <g id="text842" dominant-baseline="auto" fill="#04a" stroke-linecap="round" stroke-linejoin="round" stroke-width="2.4198" style="font-feature-settings:normal;font-variant-alternates:normal;font-variant-caps:normal;font-variant-ligatures:normal;font-variant-numeric:normal;font-variant-position:normal;paint-order:normal;shape-padding:0;text-decoration-color:#000000;text-decoration-line:none;text-decoration-style:solid;text-indent:0;text-orientation:mixed;text-transform:none;white-space:normal" aria-label="commodore">
   <path id="path865" d="m193.52 72.739h15.696q-0.21268 5.1468-1.0634 7.8691-0.80818 2.6797-2.8074 4.7214-2.9775 3.02-7.9967 3.9983-5.0192 1.0209-17.142 1.0209-9.528 0-14.292-0.80818-4.7214-0.80818-7.8266-2.9775-2.9775-2.1268-4.126-6.0401-1.1485-3.9558-1.1485-12.123 0-7.4437 1.0634-11.229t3.7857-5.9975q2.9775-2.382 7.9116-3.2752t15.398-0.89325q10.251 0 15.44 0.93578 5.2319 0.93578 8.1668 3.2752 2.4671 1.9992 3.4454 4.9341 1.0209 2.8924 1.2335 8.6773h-15.696q-0.38282-3.5305-3.1476-4.8491-2.7223-1.3611-9.4854-1.3611-6.8482 0-9.5705 1.2761-1.7014 0.85071-2.4245 2.935-0.7231 2.0417-0.7231 6.0826 0 3.9558 0.76564 5.8274t2.7223 2.7223q2.8924 1.2761 9.4429 1.2761 6.8057 0 9.3153-1.2335 2.5521-1.2335 3.0626-4.764z"/>
   <path id="path867" d="m245 47.005q10.506 0 15.696 0.85071 5.2319 0.80818 8.1668 2.935 3.0626 2.2118 4.1685 5.7848 1.1059 3.573 1.1059 11.314 0 5.7423-0.34029 8.6347-0.29775 2.8499-1.1485 5.1468-2.2118 5.7848-8.975 7.3587-5.6147 1.3186-18.631 1.3186-11.527 0-16.504-0.85071-4.9767-0.80818-7.9542-3.2752-2.8499-2.3395-3.8282-6.1251-0.93579-3.7857-0.93579-12.761 0-5.1043 0.38282-7.7415 0.42536-2.6797 1.5738-4.8916 2.3395-4.5088 7.9116-6.0826t19.311-1.6164zm0.1276 11.612q-7.6564 0-10.336 1.191-1.9566 0.89325-2.7648 2.9775-0.80818 2.0842-0.80818 6.1677 0 4.0409 0.68057 5.7848 0.68057 1.744 2.5947 2.6372 2.935 1.3611 10.591 1.3611 8.7623 0 11.187-1.829 2.4671-1.829 2.4671-8.337 0-4.0834-0.76564-5.955-0.76564-1.8716-2.7648-2.7223-2.935-1.2761-10.081-1.2761z"/>
   <path id="path869" d="m282.05 48.069h14.505v6.1677h0.76564q3.3178-7.231 16.716-7.231 7.4437 0 11.825 2.0417 4.3812 1.9992 6.8908 6.593 1.8716-4.5938 5.9975-6.593 4.1685-2.0417 11.782-2.0417 6.3803 0 10.421 1.2761 4.0834 1.2335 6.7206 4.0409 2.6372 2.7648 3.4879 6.2527 0.85071 3.4454 0.85071 11.442v19.269h-15.398v-19.269q0-4.5088-0.34029-6.2953-0.34028-1.7865-1.4037-2.8499-2.2544-2.2544-8.6773-2.2544-6.7632 0-9.1452 2.5947-1.3186 1.4462-1.829 3.7431-0.46789 2.2969-0.46789 7.3161v17.014h-15.398v-19.269q0-4.8065-0.29775-6.3803-0.25521-1.6164-1.3186-2.7223-2.1268-2.2969-8.5496-2.2969-6.9333 0-9.4429 2.5096-1.3186 1.3611-1.829 3.7006-0.46789 2.3395-0.46789 7.4437v17.014h-15.398z"/>
   <path id="path871" d="m380.78 48.069h14.505v6.1677h0.76564q3.3178-7.231 16.716-7.231 7.4437 0 11.825 2.0417 4.3812 1.9992 6.8908 6.593 1.8716-4.5938 5.9975-6.593 4.1685-2.0417 11.782-2.0417 6.3803 0 10.421 1.2761 4.0834 1.2335 6.7206 4.0409 2.6372 2.7648 3.4879 6.2527 0.85071 3.4454 0.85071 11.442v19.269h-15.398v-19.269q0-4.5088-0.34028-6.2953-0.34029-1.7865-1.4037-2.8499-2.2544-2.2544-8.6772-2.2544-6.7632 0-9.1452 2.5947-1.3186 1.4462-1.829 3.7431-0.46789 2.2969-0.46789 7.3161v17.014h-15.398v-19.269q0-4.8065-0.29775-6.3803-0.25521-1.6164-1.3186-2.7223-2.1268-2.2969-8.5496-2.2969-6.9333 0-9.4429 2.5096-1.3186 1.3611-1.829 3.7006-0.46789 2.3395-0.46789 7.4437v17.014h-15.398z"/>
   <path id="path873" d="m507.55 47.005q10.506 0 15.696 0.85071 5.2319 0.80818 8.1668 2.935 3.0626 2.2118 4.1685 5.7848 1.1059 3.573 1.1059 11.314 0 5.7423-0.34028 8.6347-0.29775 2.8499-1.1485 5.1468-2.2118 5.7848-8.975 7.3587-5.6147 1.3186-18.631 1.3186-11.527 0-16.504-0.85071-4.9767-0.80818-7.9542-3.2752-2.8499-2.3395-3.8282-6.1251-0.93578-3.7857-0.93578-12.761 0-5.1043 0.38282-7.7415 0.42536-2.6797 1.5738-4.8916 2.3394-4.5088 7.9116-6.0826t19.311-1.6164zm0.12761 11.612q-7.6564 0-10.336 1.191-1.9566 0.89325-2.7648 2.9775-0.80817 2.0842-0.80817 6.1677 0 4.0409 0.68057 5.7848 0.68057 1.744 2.5947 2.6372 2.935 1.3611 10.591 1.3611 8.7623 0 11.187-1.829 2.4671-1.829 2.4671-8.337 0-4.0834-0.76564-5.955-0.76564-1.8716-2.7648-2.7223-2.935-1.2761-10.081-1.2761z"/>
   <path id="path875" d="m601.47 31.225v58.061h-14.505v-5.402h-0.85071q-1.6164 2.8073-3.573 3.9558-4.2536 2.5096-14.632 2.5096-8.337 0-12.846-0.97832t-7.146-3.4028q-2.5521-2.2969-3.5304-6.0826-0.93578-3.7857-0.93578-11.442 0-5.3169 0.51042-8.5496 0.55297-3.2327 1.829-5.6998 2.4245-4.5938 8.5071-6.0826 4.4662-1.1059 13.782-1.1059 8.1243 0 11.612 1.3611 3.5304 1.3186 5.7423 5.2319h0.63803v-22.374zm-28.371 27.393q-9.1026 0-11.697 1.744-2.5521 1.744-2.5521 7.8691 0 4.6364 0.76564 6.6356 0.76564 1.9566 2.8499 2.7648 2.7648 1.1059 9.6981 1.1059 8.5922 0 11.442-1.7865 1.4037-0.85071 1.9566-2.7223 0.59549-1.8716 0.59549-5.4871 0-4.211-0.76564-6.1677t-2.7223-2.7648q-2.8074-1.191-9.5705-1.191z"/>
   <path id="path877" d="m638.57 47.005q10.506 0 15.696 0.85071 5.2319 0.80818 8.1668 2.935 3.0626 2.2118 4.1685 5.7848 1.1059 3.573 1.1059 11.314 0 5.7423-0.34028 8.6347-0.29775 2.8499-1.1485 5.1468-2.2118 5.7848-8.975 7.3587-5.6147 1.3186-18.631 1.3186-11.527 0-16.504-0.85071-4.9767-0.80818-7.9542-3.2752-2.8499-2.3395-3.8282-6.1251-0.93579-3.7857-0.93579-12.761 0-5.1043 0.38282-7.7415 0.42536-2.6797 1.5738-4.8916 2.3395-4.5088 7.9116-6.0826t19.311-1.6164zm0.1276 11.612q-7.6564 0-10.336 1.191-1.9566 0.89325-2.7648 2.9775-0.80818 2.0842-0.80818 6.1677 0 4.0409 0.68057 5.7848 0.68057 1.744 2.5947 2.6372 2.935 1.3611 10.591 1.3611 8.7623 0 11.187-1.829 2.4671-1.829 2.4671-8.337 0-4.0834-0.76564-5.955-0.76564-1.8716-2.7648-2.7223-2.935-1.2761-10.081-1.2761z"/>
   <path id="path879" d="m675.62 48.069h14.505v6.2102h0.76564q2.1693-3.9558 5.7848-5.6147 3.6581-1.6589 10.166-1.6589 9.3153 0 12.973 3.6581 3.6581 3.6581 3.6581 12.973 0 0.55296-0.0851 2.7648h-14.505q0-3.6155-0.76564-5.0617-1.4888-2.7223-7.3587-2.7223-5.4871 0-7.784 2.9775-1.1485 1.4887-1.5738 3.7006-0.38282 2.1693-0.38282 6.8908v17.099h-15.398z"/>
   <path id="path881" d="m769.29 76.1h15.355q-0.63804 6.7206-4.0834 9.6556-2.9775 2.5947-8.422 3.573-5.4446 1.0209-16.334 1.0209-8.975 0-13.782-0.89325-4.8065-0.85071-7.6139-2.9775-2.9775-2.2544-4.0834-5.9975-1.1059-3.7857-1.1059-11.612 0-5.8699 0.42535-8.8049 0.42536-2.9775 1.6164-5.3595 2.4671-4.9341 8.9325-6.4229 5.5296-1.2761 17.184-1.2761 10.294 0 14.505 0.7231 7.4863 1.2761 10.294 5.6147 2.8073 4.2961 2.8073 14.505 0 0.97832-0.0851 4.1685h-40.281q0 3.1476 0.38282 4.5088 0.42536 1.3611 1.6164 2.2544 2.2969 1.7014 10.379 1.7014 5.1468 0 7.6989-0.38282 2.5947-0.42536 3.5305-1.3611 0.76564-0.76564 1.0634-2.6372zm0.21267-12.505q-0.0851-2.4245-0.34028-3.3178-0.21268-0.93578-0.89325-1.6589-1.9992-2.0417-10.676-2.0417-7.784 0-10.294 1.3611-2.5096 1.3611-2.6797 5.6572z"/>
  </g>
 </g>
</svg>
