<svg xmlns="http://www.w3.org/2000/svg" height="81.993" width="302" fill="#1414a0" xmlns:v="https://vecta.io/nano"><path d="M1 3.459h24.144c5.523 0 12.033 5.158 14.936 7.995l42.36 46.967V3.459h14.39v74.987H71.639c-4.488-.151-8.894-1.074-14.029-6.119L15.32 25.274v53.172H1V3.459zm300 75.498c-17.234 2.352-34.67 2.585-52.141 1.116-10.227-.903-20.246-3.007-29.427-7.801-11.592-6.007-15.285-19.509-15.13-31.748.128-11.297 3.488-23.358 13.568-29.927 6.608-4.337 13.665-5.759 21.164-7.119 20.47-3.608 40.98-2.794 60.95-.605V13.57c-23.551-4.577-48.428-3.438-56.881 7.383-5.282 6.732-6.034 13.429-6.034 19.067 0 10.162 3.476 25.578 24.125 28.574 13.471 1.977 26.807.477 39.805-1.891v12.254zM153.518 67.294h45.638v11.204c-22.443.864-44.006 1.24-66.678.298-19.238-.794-22.552-10.468-22.924-19.761V3.457h88.528v10.677H140.81v19.091h52.199v10.421H140.81c0 5.639.186 12.033.24 13.184.306 7.27 3.678 9.945 12.467 10.464"/></svg>