<?xml version="1.0" encoding="UTF-8"?>
<!-- Created with Inkscape (http://www.inkscape.org/) -->
<svg width="187.7" height="36.172" version="1.1" viewBox="0 0 187.7 36.172" xmlns="http://www.w3.org/2000/svg">
 <g>
  <path d="m11.365 0v2.2656c5.6823 0 10.754 3.1094 13.363 7.7188h11.1v-1.9941h-9.9062c-0.4636-0.69271-0.99993-1.3861-1.5781-2.0371l8.7969 0.037109v-1.9961h-10.869c-0.9583-0.77084-1.9949-1.4577-3.1094-1.9941-0.036 0-0.037109-0.041016-0.037109-0.041016l0.11523 0.041016h11.25v-2zm13.979 11.984v1.9941h7.7969v-1.9941zm-13.938 3.7246c-1.2291 0-2.2285 0.9948-2.2285 2.2656h4.4941c0-1.2708-0.99993-2.2656-2.2656-2.2656zm12.4 0.26562c-1.1511 0-2.1094 0.88543-2.2656 2h14.287v-2zm1.5371 3.9941v1.9941h7.7969v-1.9941zm-0.19336 3.9941c-0.5364 2.4583-1.6869 4.7604-3.2598 6.6406h2.4941c0.9583-1.4219 1.7662-2.9935 2.3027-4.6445h9.1406v-1.9961z" fill="#E51D21"/>
  <path d="m11.406 9.8691v2.2656c3.224 0 5.834 2.6107 5.834 5.8398v3.9883h2.2656v-3.9883c0-4.4948-3.61-8.1055-8.0996-8.1055zm0 2.2656c-1.7708 0-3.3809 0.80859-4.459 2.0742l1.4648 1.2285c0.7291-0.88542 1.8014-1.4219 2.9941-1.4219zm2.416 11.828 2.918 2.8809 2.8789-2.8809zm-1.6133 4.6465c0.1146 1.1146 1.0775 1.9941 2.2285 1.9941h3.959v-1.9941z" fill="#009EA2"/>
  <path d="m0 20.547c0 2.9167 2.3802 5.2969 5.2969 5.2969v-1.9219c-1.8802 0-3.375-1.4948-3.375-3.375zm3.4941 9.6777v2.6875c2.651 2.0312 5.9903 3.2598 9.5996 3.2598v-2.0723c-3.7239 0-7.1048-1.4583-9.5996-3.875z" fill="#56447A"/>
  <path d="m86.975 6.6465v19.312h3.4219v-6.4531h0.03516l4.416 6.4531h4.375l-5.5664-7.334 4.9531-5.9121h-4.0684l-4.1094 5.2969h-0.03516v-11.363zm47.27 0v7.6035h-0.0723c-1-1.2708-2.2298-1.8496-3.959-1.8496-4.0677 0-5.5312 3.2292-5.5312 6.875v0.04297c0 3.6094 1.4636 6.9102 5.5312 6.9102 1.6146 0 3.0376-0.5358 4.0742-1.8066h0.0352v1.5h3.3808v-19.275zm42.855 0v19.312h3.416v-19.312zm7.1445 0v19.312h3.4531v-19.312zm-136.86 1.3438v17.969h3.5742v-6.834h1.5312c3.8437 0 6.916-1.5371 6.916-5.7246 0-4.2604-3.5736-5.4102-7.4902-5.4102zm99.918 0v17.932h6.2969c2.2291 0 6.2598-0.69272 6.2598-5.1875 0-1.7656-1.0358-3.1452-2.6504-3.7598-0.4584-0.19271-0.92238-0.30801-1.459-0.34961v-0.03711c2.1511-0.3802 3.5723-1.8796 3.5723-3.9941 0-3.9167-3.4571-4.6035-5.7227-4.6035zm-96.344 2.8379h1.3008c1.8438 0 3.4219 0.69337 3.4219 2.8027 0 2.0781-1.6563 2.6504-3.4219 2.6504h-1.3008zm99.953 0h1.3789c1.6562 0 3.459 0.15561 3.459 2.2285 0 1.8438-1.8445 2.1523-3.3809 2.1523h-1.457zm-84.787 1.5723c-1.4583 0-3.2656 0.38542-4.6094 1l0.07813 2.959c1.1928-0.88543 2.6511-1.459 4.1094-1.459 2.0365 0 2.9941 0.72982 2.9941 2.8809h-1.9219c-1.4219 0-3.1093 0.11459-4.4531 0.76562-1.3073 0.61459-2.2656 1.7656-2.2656 3.7656 0 2.5312 2.3028 3.9531 4.6465 3.9531 1.5729 0 3.3015-0.84441 4.0723-2.3027h0.07422c0 0.42188 5.1e-5 1.2669 0.15625 1.9961h3.0312c-0.0731-1.0365-0.15234-1.9596-0.15234-2.9961-0.042-0.95834-0.07813-1.957-0.07813-3.3008v-1.6875c0-3.9167-1.6504-5.5742-5.6816-5.5742zm14.516 0c-4.1511 0-6.4121 3.0365-6.4121 6.875 0 4.0365 2.1888 6.9902 6.5273 6.9902 1.4219 0 2.4583-0.15168 3.4531-0.45898l-0.15234-2.8438c-0.5782 0.27084-1.6504 0.61523-2.6504 0.61523-2.3801 0-3.5684-1.8809-3.5684-4.3027 0-2.5312 1.3815-4.2227 3.4961-4.2227 1.0729 0 1.7234 0.22916 2.3379 0.5l0.30664-2.7246c-0.9582-0.27084-1.916-0.42773-3.3379-0.42773zm25.687 0c-1.4582 0-3.2598 0.38542-4.6035 1l0.11328 2.959c1.151-0.88543 2.6101-1.459 4.0684-1.459 2.0729 0 2.9941 0.72982 2.9941 2.8809h-1.8789c-1.4584 0-3.151 0.11459-4.4531 0.76562-1.3073 0.61459-2.2656 1.7656-2.2656 3.7656 0 2.5312 2.2642 3.9531 4.6445 3.9531 1.5364 0 3.2611-0.84441 4.0684-2.3027h0.041c0.0364 0.42188 0.0357 1.2669 0.15039 1.9961h3.0371c-0.0773-1.0365-0.11525-1.9596-0.15625-2.9961-0.036-0.95834-0.0352-1.957-0.0352-3.3008v-1.6875c0-3.9167-1.6932-5.5742-5.7246-5.5742zm16.244 0c-2.073 0-3.4941 2.0794-3.6504 3.3086h-0.0371v-2.9961h-3.0723v13.246h3.457v-4.875c0-1.9219 7.4e-4 -5.418 2.8027-5.418 0.6146 0 1.2298 0.11589 1.5371 0.30859v-3.4961c-0.3437-0.0781-0.72981-0.07813-1.0371-0.07813zm45.465 0c-4.1459 0-6.1406 3.1517-6.1406 6.9902 0 4.3385 2.53 6.875 6.9102 6.875 1.8437 0 3.2604-0.38478 4.5312-1.0723v-2.8086c-1.2708 0.73437-2.7278 1.3438-4.3789 1.3438-2.151 0-3.6464-1.2233-3.8027-3.3379h9.1816c0-4.6458-1.4207-7.9902-6.3008-7.9902zm0.19141 2.5c1.9219 0 2.688 1.4583 2.8027 3.1094h-5.875c0.1563-1.7656 1.1505-3.1094 3.0723-3.1094zm-37.094 0.15234c2.1875 0 3.0742 2.3789 3.0742 4.2227v0.04297h-2e-3c0 1.8385-0.76946 4.2227-3.0352 4.2227-2.2656 0-2.918-2.4206-2.918-4.2227h2e-3v-0.04297c0-1.7656 0.64971-4.2227 2.8789-4.2227zm19.777 2.8438h1.6875c1.8072 0 3.6875 0.34374 3.6875 2.6875 0 2.1094-1.9948 2.4941-3.6875 2.4941h-1.6875zm-83.715 1.9219h1.5c0 1.0312-0.15552 1.9935-0.72852 2.7227-0.5416 0.72916-1.3855 1.1875-2.4219 1.1875-1.2292 0-2.1875-0.49479-2.1875-1.6094 0-2.0364 2.3067-2.3008 3.8379-2.3008zm40.209 0h1.4941c0 1.0312-0.15042 1.9935-0.72851 2.7227-0.5 0.72916-1.3445 1.1875-2.3809 1.1875-1.2292 0-2.1875-0.49479-2.1875-1.6094 0-2.0364 2.2663-2.3008 3.8027-2.3008z" fill="#575757"/>
 </g>
</svg>
