<?xml version="1.0" encoding="UTF-8" standalone="no"?>
<svg
   id="svg8"
   width="1017.5"
   height="92.6"
   version="1.1"
   sodipodi:docname="Pb_logo_old.svg"
   inkscape:version="1.1.1 (c3084ef, 2021-09-22)"
   xmlns:inkscape="http://www.inkscape.org/namespaces/inkscape"
   xmlns:sodipodi="http://sodipodi.sourceforge.net/DTD/sodipodi-0.dtd"
   xmlns="http://www.w3.org/2000/svg"
   xmlns:svg="http://www.w3.org/2000/svg"
   xmlns:rdf="http://www.w3.org/1999/02/22-rdf-syntax-ns#"
   xmlns:cc="http://creativecommons.org/ns#"
   xmlns:dc="http://purl.org/dc/elements/1.1/">
  <defs
     id="defs841" />
  <sodipodi:namedview
     id="namedview839"
     pagecolor="#ffffff"
     bordercolor="#666666"
     borderopacity="1.0"
     inkscape:pageshadow="2"
     inkscape:pageopacity="0.0"
     inkscape:pagecheckerboard="0"
     showgrid="false"
     inkscape:zoom="1.0800983"
     inkscape:cx="508.75"
     inkscape:cy="46.755005"
     inkscape:window-width="1920"
     inkscape:window-height="1027"
     inkscape:window-x="0"
     inkscape:window-y="25"
     inkscape:window-maximized="1"
     inkscape:current-layer="g948" />
  <metadata
     id="metadata14">
    <rdf:RDF>
      <cc:Work
         rdf:about="">
        <dc:format>image/svg+xml</dc:format>
        <dc:type
           rdf:resource="http://purl.org/dc/dcmitype/StillImage" />
        <dc:title />
      </cc:Work>
    </rdf:RDF>
  </metadata>
  <g
     id="g6"
     transform="translate(268.73 -133.7)">
    <g
       id="g948"
       fill-rule="evenodd">
      <path
         id="path928"
         d="m554.73 182.67h182.91l-9.6529 41.824h-182.91z"
         fill="#f00"
         style="mix-blend-mode:normal" />
      <path
         id="path926"
         d="m748.73 134.17-9.6529 41.829h-182.92l9.6529-41.829z"
         fill="#f00"
         style="mix-blend-mode:normal" />
      <path
         id="path924"
         d="m-134.69 179.63c6.8348-35.159 30.726-45.934 59.702-45.934 8.7391 0 21.445 6.1179 26.201 11.541-1.2203 2.6704-4.3011 10.2-5.007 13.172h-1.8496c-3.5077-7.1467-11.694-14.474-20.296-14.474-21.971 0-32.789 17.566-36.412 37.052-3.9236 21.095 2.944 36.445 23.328 36.445 8.2028 0 18.097-1.9372 25.161-7.6282l1.565 0.79894-5.1274 11.382c-8.7336 4.1041-17.982 4.3121-26.852 4.3121-28.33 0-45.682-19.541-40.412-46.667z"
         style="mix-blend-mode:normal;fill:#f9f9f9" />
      <path
         id="path922"
         d="m415.66 212.99c-0.6293 1.8551-1.4118 3.836-1.773 5.6911-0.35022 1.8551-0.33928 3.8415-0.43777 5.6911h-50.437l17.516-90.138h50.437c-0.6293 1.8551-1.4118 3.836-1.773 5.6911-0.35022 1.8551-0.33928 3.836-0.43777 5.6911-7.869-1.0561-16.663-2.1177-29.298-1.8551l-5.5378 28.461h12.849c5.9537 0 11.492-0.5308 16.515-1.1929-0.61836 1.8551-1.4118 3.8415-1.762 5.6965-0.36116 1.8496-0.35022 3.836-0.44872 5.6911-4.7663-0.66213-10.091-1.1929-16.044-1.1929h-12.849l-6.5393 33.621c12.613-0.13133 21.741-0.79347 30.02-1.8551z"
         style="mix-blend-mode:normal;fill:#f9f9f9" />
      <path
         id="path920"
         d="m444.64 213.47c10.605 0 12.761-0.9248 21.943-1.8551-0.61836 1.8551-1.8715 5.215-2.2217 7.0701-0.36116 1.8551-0.35022 3.8415-0.44872 5.6911h-42.803l17.516-90.138c3.7101 0.26266 6.9442 0.66213 10.249 0.66213 3.3161 0 6.7034-0.39947 10.977-0.66213z"
         style="mix-blend-mode:normal;fill:#f9f9f9" />
      <path
         id="path918"
         transform="translate(-268.73 133.7)"
         d="m17.648 0.53711-17.648 90.793c3.3599-0.26266 6.7475-0.65625 10.053-0.65625 3.3107 0 6.5393 0.39359 11.18 0.65625l7.0527-36.16c31.328 0.80441 43.619-3.4188 48.199-26.977 2.9002-14.955-7.8853-27.656-26.277-27.656h-32.559zm19.168 10.275h6.8301c5.1822 0.03831 12.323 6.3273 10.266 16.916-1.5705 8.0715-3.4541 14.932-12.521 17.307-3.535 0.80441-8.4208 1.4283-11.441 1.1602l6.8672-35.383z"
         style="mix-blend-mode:normal;fill:#f9f9f9" />
      <path
         id="path914"
         transform="translate(-268.73 133.7)"
         d="m229.09 0.076172-17.648 90.801c4.9688-0.26266 8.3554-0.65625 11.666-0.65625 3.3052 0 6.5409 0.39359 9.7969 0.65625l7.2617-37.727 18.189 37.955c4.74-0.24471 9.4818-0.42678 14.227-0.54688 2.1177 0 11.06 0.14836 13.156 0.28516 4.2902-9.1331 9.0771-16.192 14.473-26.25h29.693c1.8441 8.8704 4.4872 17.413 5.6309 27.203 3.8907-0.26266 7.6722-0.66211 11.514-0.66211 3.7922 0 7.4253-0.29744 11.256-0.029297l-0.03906-0.1582c3.8907-0.21884 7.0606-0.26758 10.152-0.26758 3.3052 0 6.5376 0.39359 10.713 0.65625l8.2578-42.486h0.00586l18.852 42.723c4.0221-0.26813 8.0721-0.66211 12.045-0.66211 4.1041 0 7.9944 0.39397 11.918 0.66211l-3.5684-8.209-15.738-33.746c17.817-1.2258 22.977-9.9376 25.5-22.912 1.7456-9.0017-4.5141-19.553-11.283-23.525-4.9906-2.9112-14.709-2.6426-20.926-2.6426h-29.111l-17.266 88.506-20.635-88.781c-1.6895 0.25962-3.3961 0.39153-5.1055 0.39453-1.7237 0-3.2841-0.13187-4.9531-0.39453l-47.969 81.121-21.867-38.645c6.7308-4.7827 13.079-11.946 18.031-16.312l25.67-24.604 0.20898-1.0566c-2.4351 0.26263-6.9619-0.027344-9.2109-0.027344-2.3859 0-6.9872-0.1635-9.3184-0.43164-13.845 14.031-25.736 27.568-40.166 41.199l8.0488-41.43c-3.3599 0.26813-6.7475 0.66211-10.053 0.66211-3.3107 0-6.538-0.39397-11.408-0.66211zm165.99 11.65c7.1522 0 19.124 1.2365 19.107 12.225-0.01095 2.7799-0.03141 1.7793-0.39257 3.6289-2.6485 13.637-11.969 16.115-24.691 14.791l5.9766-30.645zm-72.709 15.307 6.0137 29.461h-23.762l17.748-29.461z"
         style="mix-blend-mode:normal;fill:#f9f9f9" />
      <path
         id="path908"
         transform="translate(-268.73 133.7)"
         d="m451.73 0.53711-17.518 90.137h37.059c27.131 0 49.792-14.058 55.604-43.969 4.2136-21.714-7.5034-45.112-35.625-46.168h-39.52zm19.514 10.199h10.441c18.666 0 25.386 15.841 23.246 32.148-3.7375 28.483-19.394 37.119-37.66 37.119h-9.6426l13.615-69.268z"
         style="mix-blend-mode:normal;fill:#f9f9f9" />
      <path
         id="path904"
         transform="translate(-268.73 133.7)"
         d="m577.26 0.53711-17.516 90.137h31.498c15.618 0 33.571-4.9853 36.154-23.41 1.2312-8.761-2.4456-20.246-12-23.031l0.23438-0.68945c11.568-1.5924 16.281-8.5094 18.705-20.953 3.0042-15.486-8.635-22.053-21.998-22.053h-35.078zm25.709 9.1055c8.7391 0 12.706 4.0104 10.846 13.543-1.0069 5.1603-2.2103 8.2572-6.9766 11.699-4.3723 3.1958-10.572 3.5246-15.283 3.541l5.4824-28.258c1.8058-0.394 3.8139-0.52539 5.9316-0.52539zm-13.09 37.436 0.02343 0.13672c12.745-0.56911 18.237 3.7467 15.408 18.303-2.1287 10.988-8.9466 15.043-16.225 15.043h-5.6973l6.4902-33.482z"
         style="mix-blend-mode:normal;fill:#f9f9f9" />
      <path
         id="path898"
         d="m515.64 224.37h-42.814l17.516-90.138c3.7211 0.26266 6.9497 0.66213 10.26 0.66213 3.3052 0 6.6925-0.39947 10.977-0.66213l-15.207 79.232c10.594 0 12.761-0.9248 21.943-1.8551-0.6293 1.8551-1.8715 5.215-2.2326 7.0701s-0.35022 3.847-0.44325 5.6911z"
         style="mix-blend-mode:normal;fill:#f9f9f9" />
      <path
         id="path896"
         transform="translate(-268.73 133.7)"
         d="m103.51 0.26367-53.611 90.574c2.1451-0.13134 4.3119-0.39453 6.4297-0.39453 2.1177 0 3.7049 0.2632 5.8008 0.39453 4.2902-9.1331 9.079-16.192 14.475-26.25h29.691c1.8496 8.8704 4.4926 17.413 5.6309 27.203 3.8907-0.26266 7.6722-0.65625 11.514-0.65625 3.836 0 7.4707-0.29744 11.252-0.029297l-21.123-90.842c-1.6894 0.26159-3.396 0.39444-5.1055 0.39844-1.7183 0-3.2841-0.1303-4.9531-0.39844zm-4.7051 26.77 6.0195 29.461h-23.766l17.746-29.461z"
         style="mix-blend-mode:normal;fill:#f9f9f9" />
    </g>
  </g>
</svg>
